<mxfile host="app.diagrams.net" modified="2024-04-17T23:55:45.966Z" agent="Mozilla/5.0 (Windows NT 10.0; Win64; x64) AppleWebKit/537.36 (KHTML, like Gecko) Chrome/123.0.0.0 Safari/537.36" version="24.2.5" etag="zw3xAq5hnEjUDhagRAbO" type="github">
  <diagram name="Page-1" id="p65KH_vCwlCSbU4K32qI">
    <mxGraphModel>
      <root>
        <mxCell id="0" />
        <mxCell id="1" parent="0" />
      </root>
    </mxGraphModel>
  </diagram>
</mxfile>
